# xmcd
#
# Track frame offsets:
#	150
#	17780
#	35362
#	53154
#	63717
#	82113
#	102311
#	118360
#	136286
#	150726
#	166822
#	184866
#
# Disc length: 2578 seconds
# Revision: 0
# Processed by: cddbd v1.5.2PL0 Copyright (c) Steve Scherf et al.
# Submitted via: dBpowerAMP V12.0
#
DISCID=a50a100c
DTITLE=Amanda Rheaume - Holding Patterns
DYEAR=2016
DGENRE=Americana
TTITLE0=Get to the Part
TTITLE1=Mind Over Matter
TTITLE2=Time to Land
TTITLE3=Red Dress
TTITLE4=The Day the Mountain Fell
TTITLE5=All That You Need
TTITLE6=Beat the Rain
TTITLE7=Blood from a Stone
TTITLE8=Wolf of Time
TTITLE9=This Time Around
TTITLE10=Dead Horse
TTITLE11=On Disappearing
EXTD=
EXTT0=
EXTT1=
EXTT2=
EXTT3=
EXTT4=
EXTT5=
EXTT6=
EXTT7=
EXTT8=
EXTT9=
EXTT10=
EXTT11=
PLAYORDER=
